<svg xmlns="http://www.w3.org/2000/svg" viewBox="0 0 400 300" width="400" height="300">
  <rect width="400" height="300" fill="#0f172a"/>
  <!-- Phone outline -->
  <rect x="140" y="20" width="120" height="260" rx="16" fill="#1e293b" stroke="#64748b" stroke-width="4"/>
  <!-- Header -->
  <path d="M 140 36 A 16 16 0 0 1 156 20 L 244 20 A 16 16 0 0 1 260 36 L 260 70 L 140 70 Z" fill="#f59e0b"/>
  <!-- Screen content -->
  <rect x="160" y="90" width="80" height="40" rx="4" fill="#334155"/>
  <circle cx="200" cy="110" r="10" fill="#f59e0b"/>
  <rect x="155" y="145" width="90" height="8" rx="2" fill="#94a3b8"/>
  <rect x="155" y="165" width="90" height="8" rx="2" fill="#94a3b8"/>
  <rect x="160" y="195" width="80" height="25" rx="12" fill="#f59e0b"/>
  <!-- Chart lines -->
  <path d="M 155 240 L 175 220 L 195 230 L 215 210 L 235 225" stroke="#f59e0b" stroke-width="2" fill="none"/>
</svg>