<svg xmlns="http://www.w3.org/2000/svg" viewBox="0 0 400 300" width="400" height="300">
  <rect width="400" height="300" fill="#0f172a"/>
  <rect x="20" y="20" width="360" height="260" rx="8" fill="#1e293b" stroke="#334155" stroke-width="2"/>
  <!-- Navbar -->
  <path d="M 20 28 A 8 8 0 0 1 28 20 L 372 20 A 8 8 0 0 1 380 28 L 380 60 L 20 60 Z" fill="#7952b3"/>
  <text x="40" y="45" font-family="sans-serif" font-size="18" font-weight="bold" fill="#ffffff">B</text>
  <!-- Jumbotron -->
  <rect x="40" y="80" width="320" height="100" rx="8" fill="#334155"/>
  <rect x="60" y="100" width="150" height="15" rx="4" fill="#f8fafc"/>
  <rect x="60" y="130" width="200" height="8" rx="2" fill="#94a3b8"/>
  <rect x="60" y="145" width="80" height="20" rx="4" fill="#0d6efd"/>
  <!-- Cards -->
  <rect x="40" y="200" width="90" height="60" rx="4" fill="#475569"/>
  <rect x="155" y="200" width="90" height="60" rx="4" fill="#475569"/>
  <rect x="270" y="200" width="90" height="60" rx="4" fill="#475569"/>
</svg>